<?xml version="1.0" encoding="UTF-8" standalone="no"?>
<svg
   xmlns:dc="http://purl.org/dc/elements/1.1/"
   xmlns:cc="http://creativecommons.org/ns#"
   xmlns:rdf="http://www.w3.org/1999/02/22-rdf-syntax-ns#"
   xmlns:svg="http://www.w3.org/2000/svg"
   xmlns="http://www.w3.org/2000/svg"
   viewBox="0 0 85.333336 85.333336"
   height="85.333336"
   width="85.333336"
   xml:space="preserve"
   id="svg2"
   version="1.1"><metadata
     id="metadata8"><rdf:RDF><cc:Work
         rdf:about=""><dc:format>image/svg+xml</dc:format><dc:type
           rdf:resource="http://purl.org/dc/dcmitype/StillImage" /></cc:Work></rdf:RDF></metadata><defs
     id="defs6"><clipPath
       id="clipPath18"
       clipPathUnits="userSpaceOnUse"><path
         id="path16"
         d="M 0,64 H 64 V 0 H 0 Z" /></clipPath></defs><g
     transform="matrix(1.3333333,0,0,-1.3333333,0,85.333333)"
     id="g10"><g
       id="g12"><g
         clip-path="url(#clipPath18)"
         id="g14"><g
           transform="translate(21.1972,0.7677)"
           id="g20"><path
             id="path22"
             style="fill:none;stroke:#083863;stroke-width:1;stroke-linecap:round;stroke-linejoin:round;stroke-miterlimit:10;stroke-dasharray:none;stroke-opacity:1"
             d="M 0,0 H 4.631" /></g><g
           transform="translate(30.6166,0.7677)"
           id="g24"><path
             id="path26"
             style="fill:none;stroke:#083863;stroke-width:1;stroke-linecap:round;stroke-linejoin:round;stroke-miterlimit:10;stroke-dasharray:none;stroke-opacity:1"
             d="M 0,0 H 4.16" /></g><g
           transform="translate(38.3876,0.7677)"
           id="g28"><path
             id="path30"
             style="fill:none;stroke:#083863;stroke-width:1;stroke-linecap:round;stroke-linejoin:round;stroke-miterlimit:10;stroke-dasharray:none;stroke-opacity:1"
             d="m 0,0 h 10.116 c 8.252,0 6.211,7.3 1.501,7.3 -3.752,0 -3.375,-4.396 0.079,-4.396" /></g><g
           transform="translate(11.1263,9.2648)"
           id="g32"><path
             id="path34"
             style="fill:#00acea;fill-opacity:1;fill-rule:nonzero;stroke:none"
             d="m 0,0 c 0,0 0.131,-2.356 -0.393,-3.075 -0.523,-0.72 -0.85,-2.389 -0.85,-2.389 h 30.95 c 0,0 0.131,1.387 -0.588,2.526 C 28.399,-1.799 28.595,0 28.595,0 Z" /></g><g
           transform="translate(11.1263,9.2648)"
           id="g36"><path
             id="path38"
             style="fill:none;stroke:#083863;stroke-width:1;stroke-linecap:butt;stroke-linejoin:miter;stroke-miterlimit:10;stroke-dasharray:none;stroke-opacity:1"
             d="m 0,0 c 0,0 0.131,-2.356 -0.393,-3.075 -0.523,-0.72 -0.85,-2.389 -0.85,-2.389 h 30.95 c 0,0 0.131,1.387 -0.588,2.526 C 28.399,-1.799 28.595,0 28.595,0 Z" /></g><g
           transform="translate(38.9092,9.2648)"
           id="g40"><path
             id="path42"
             style="fill:#fedb41;fill-opacity:1;fill-rule:nonzero;stroke:none"
             d="m 0,0 h -27.363 c -0.846,0 -1.532,0.686 -1.532,1.532 v 1.647 c 0,0.846 0.686,1.532 1.532,1.532 H 0 c 0.846,0 1.532,-0.686 1.532,-1.532 V 1.532 C 1.532,0.686 0.846,0 0,0" /></g><g
           transform="translate(38.9092,9.2648)"
           id="g44"><path
             id="path46"
             style="fill:none;stroke:#083863;stroke-width:1;stroke-linecap:butt;stroke-linejoin:miter;stroke-miterlimit:10;stroke-dasharray:none;stroke-opacity:1"
             d="m 0,0 h -27.363 c -0.846,0 -1.532,0.686 -1.532,1.532 v 1.647 c 0,0.846 0.686,1.532 1.532,1.532 H 0 c 0.846,0 1.532,-0.686 1.532,-1.532 V 1.532 C 1.532,0.686 0.846,0 0,0 Z" /></g><path
           id="path48"
           style="fill:#00efd1;fill-opacity:1;fill-rule:nonzero;stroke:#083863;stroke-width:1;stroke-linecap:butt;stroke-linejoin:miter;stroke-miterlimit:10;stroke-dasharray:none;stroke-opacity:1"
           d="m 28.434,13.976 h -6.053 v 2.945 h 6.053 z" /><path
           id="path50"
           style="fill:#fedb41;fill-opacity:1;fill-rule:nonzero;stroke:#083863;stroke-width:1;stroke-linecap:butt;stroke-linejoin:miter;stroke-miterlimit:10;stroke-dasharray:none;stroke-opacity:1"
           d="M 26.351,48.7 H 24.344 V 16.92 h 2.007 z" /><path
           id="path52"
           style="fill:#00efd1;fill-opacity:1;fill-rule:nonzero;stroke:#083863;stroke-width:1;stroke-linecap:butt;stroke-linejoin:miter;stroke-miterlimit:10;stroke-dasharray:none;stroke-opacity:1"
           d="M 27.469,59.077 H 23.314 V 48.935 h 4.155 z" /><g
           transform="translate(25.442,63.2323)"
           id="g54"><path
             id="path56"
             style="fill:#00acea;fill-opacity:1;fill-rule:nonzero;stroke:none"
             d="m 0,0 h -0.102 c -1.119,0 -2.027,-0.907 -2.027,-2.027 v -2.128 h 4.156 v 2.128 C 2.027,-0.907 1.119,0 0,0" /></g><g
           transform="translate(25.442,63.2323)"
           id="g58"><path
             id="path60"
             style="fill:none;stroke:#083863;stroke-width:1;stroke-linecap:butt;stroke-linejoin:miter;stroke-miterlimit:10;stroke-dasharray:none;stroke-opacity:1"
             d="m 0,0 h -0.102 c -1.119,0 -2.027,-0.907 -2.027,-2.027 v -2.128 h 4.156 v 2.128 C 2.027,-0.907 1.119,0 0,0 Z" /></g></g></g></g></svg>