<svg xmlns="http://www.w3.org/2000/svg" viewBox="0 0 32 32"><g data-name="24 hours"><path d="M15 14.3V14a3 3 0 0 0-6 0v1a1 1 0 0 0 2 0v-1a1 1 0 0 1 2 0v.3a1 1 0 0 1-.22.62l-3.56 4.46a1 1 0 0 0-.12 1.05 1 1 0 0 0 .9.57h4a1 1 0 0 0 0-2h-1.92l2.26-2.83A3 3 0 0 0 15 14.3zm7-3.3a1 1 0 0 0-1 1v3h-2v-3a1 1 0 0 0-2 0v4a1 1 0 0 0 1 1h3v3a1 1 0 0 0 2 0v-8a1 1 0 0 0-1-1z"/><path d="M29.62 12.77a1 1 0 1 0-1.94.46A12.2 12.2 0 0 1 28 16a12 12 0 1 1-3.07-8H24a1 1 0 0 0 0 2h3a1 1 0 0 0 1-.92l.27-3.27a1 1 0 1 0-2-.16l-.06.79A14 14 0 1 0 30 16a13.86 13.86 0 0 0-.38-3.23Z"/></g></svg>