<?xml version="1.0" encoding="UTF-8" standalone="no"?>
<svg
   xmlns:dc="http://purl.org/dc/elements/1.1/"
   xmlns:cc="http://creativecommons.org/ns#"
   xmlns:rdf="http://www.w3.org/1999/02/22-rdf-syntax-ns#"
   xmlns:svg="http://www.w3.org/2000/svg"
   xmlns="http://www.w3.org/2000/svg"
   viewBox="0 0 66.666664 66.666664"
   height="66.666664"
   width="66.666664"
   xml:space="preserve"
   id="svg2"
   version="1.1"><metadata
     id="metadata8"><rdf:RDF><cc:Work
         rdf:about=""><dc:format>image/svg+xml</dc:format><dc:type
           rdf:resource="http://purl.org/dc/dcmitype/StillImage" /></cc:Work></rdf:RDF></metadata><defs
     id="defs6"><clipPath
       id="clipPath18"
       clipPathUnits="userSpaceOnUse"><path
         id="path16"
         d="M 0,50 H 50 V 0 H 0 Z" /></clipPath><clipPath
       id="clipPath30"
       clipPathUnits="userSpaceOnUse"><path
         id="path28"
         d="M 0,50 H 50 V 0 H 0 Z" /></clipPath></defs><g
     transform="matrix(1.3333333,0,0,-1.3333333,0,66.666667)"
     id="g10"><g
       id="g12"><g
         clip-path="url(#clipPath18)"
         id="g14"><g
           transform="translate(48.9362,25)"
           id="g20"><path
             id="path22"
             style="fill:#fff4bb;fill-opacity:1;fill-rule:nonzero;stroke:none"
             d="m 0,0 c 0,-13.22 -10.717,-23.936 -23.936,-23.936 -13.22,0 -23.936,10.716 -23.936,23.936 0,13.22 10.716,23.936 23.936,23.936 C -10.717,23.936 0,13.22 0,0" /></g></g></g><g
       id="g24"><g
         clip-path="url(#clipPath30)"
         id="g26"><g
           transform="translate(36.0729,10.7762)"
           id="g32"><path
             id="path34"
             style="fill:#f8a41a;fill-opacity:1;fill-rule:nonzero;stroke:none"
             d="m 0,0 h -22.146 c -2.687,0 -4.885,2.198 -4.885,4.885 v 0.122 c 0,0.476 0.39,0.866 0.866,0.866 H 4.019 c 0.476,0 0.866,-0.39 0.866,-0.866 V 4.885 C 4.885,2.198 2.687,0 0,0" /></g><g
           transform="translate(36.0729,10.7762)"
           id="g36"><path
             id="path38"
             style="fill:none;stroke:#8c5300;stroke-width:0.25;stroke-linecap:butt;stroke-linejoin:miter;stroke-miterlimit:10;stroke-dasharray:none;stroke-opacity:1"
             d="m 0,0 h -22.146 c -2.687,0 -4.885,2.198 -4.885,4.885 v 0.122 c 0,0.476 0.39,0.866 0.866,0.866 H 4.019 c 0.476,0 0.866,-0.39 0.866,-0.866 V 4.885 C 4.885,2.198 2.687,0 0,0 Z" /></g><g
           transform="translate(40.958,13.7161)"
           id="g40"><path
             id="path42"
             style="fill:#f7971c;fill-opacity:1;fill-rule:nonzero;stroke:none"
             d="M 0,0 V 2.412 C 0,2.698 -0.235,2.933 -0.521,2.933 H -2.159 C -5.926,-0.014 -12.598,-1.765 -18.481,-2.94 H -2.94 C -1.323,-2.94 0,-1.617 0,0" /></g><g
           transform="translate(22.4774,10.7762)"
           id="g44"><path
             id="path46"
             style="fill:none;stroke:#8c5300;stroke-width:0.25;stroke-linecap:round;stroke-linejoin:miter;stroke-miterlimit:10;stroke-dasharray:none;stroke-opacity:1"
             d="m 0,0 h 15.541 c 1.617,0 2.94,1.323 2.94,2.94 v 2.412 c 0,0.286 -0.235,0.521 -0.522,0.521 h -1.638" /></g><g
           transform="translate(39.0117,23.3866)"
           id="g48"><path
             id="path50"
             style="fill:#e62728;fill-opacity:1;fill-rule:nonzero;stroke:none"
             d="m 0,0 h -28.023 c -0.621,0 -1.13,-0.508 -1.13,-1.129 v -0.048 c 0,-0.621 0.509,-1.129 1.13,-1.129 H 0 c 0.621,0 1.129,0.508 1.129,1.129 v 0.048 C 1.129,-0.508 0.621,0 0,0" /></g><g
           transform="translate(39.0117,23.3866)"
           id="g52"><path
             id="path54"
             style="fill:none;stroke:#7c0a00;stroke-width:0.25;stroke-linecap:butt;stroke-linejoin:miter;stroke-miterlimit:10;stroke-dasharray:none;stroke-opacity:1"
             d="m 0,0 h -28.023 c -0.621,0 -1.13,-0.508 -1.13,-1.129 v -0.048 c 0,-0.621 0.509,-1.129 1.13,-1.129 H 0 c 0.621,0 1.129,0.508 1.129,1.129 v 0.048 C 1.129,-0.508 0.621,0 0,0 Z" /></g><g
           transform="translate(35.4085,16.6491)"
           id="g56"><path
             id="path58"
             style="fill:#8c401f;fill-opacity:1;fill-rule:nonzero;stroke:none"
             d="M 0,0 H 2.802 C 3.829,0 4.669,0.84 4.669,1.867 V 2.565 C 4.669,3.226 4.319,3.808 3.797,4.14 3.216,2.22 1.34,0.801 0,0" /></g><g
           transform="translate(39.5488,23.3114)"
           id="g60"><path
             id="path62"
             style="fill:#b75f28;fill-opacity:1;fill-rule:nonzero;stroke:none"
             d="m 0,0 h -28.8 c -0.556,0.404 -0.89,0.737 -0.89,1.145 v 3.036 c 0,0.408 0.334,0.741 0.741,0.741 h 28.8 c 0.408,0 0.741,-0.333 0.741,-0.741 V 1.145 C 0.592,0.737 0.259,0.404 0,0" /></g><g
           transform="translate(39.5488,23.3114)"
           id="g64"><path
             id="path66"
             style="fill:none;stroke:#692900;stroke-width:0.25;stroke-linecap:butt;stroke-linejoin:miter;stroke-miterlimit:10;stroke-dasharray:none;stroke-opacity:1"
             d="m 0,0 h -28.8 c -0.556,0.404 -0.89,0.737 -0.89,1.145 v 3.036 c 0,0.408 0.334,0.741 0.741,0.741 h 28.8 c 0.408,0 0.741,-0.333 0.741,-0.741 V 1.145 C 0.592,0.737 0.259,0.404 0,0 Z" /></g><g
           transform="translate(41.4028,26.5754)"
           id="g68"><path
             id="path70"
             style="fill:#347237;fill-opacity:1;fill-rule:nonzero;stroke:none"
             d="m 0,0 c -0.004,0.008 -1.297,2.575 -1.297,2.575 h -14.243 -1.726 -14.242 c 0,0 -1.294,-2.567 -1.298,-2.575 -0.664,-1.32 1.506,-1.63 2.202,-1.2 0.285,0.175 0.5,0.455 0.776,0.639 0.896,0.6 1.895,0.25 2.658,-0.432 0,0 2.505,-2.681 4.831,-0.211 0.777,0.825 1.722,1.268 2.771,0.708 0.95,-0.507 1.67,-1.501 2.679,-1.875 0.698,-0.259 1.466,-0.034 2.042,0.45 0.388,0.325 0.593,0.829 1.017,1.102 1.099,0.709 2.452,0.582 3.363,-0.385 2.326,-2.47 4.831,0.211 4.831,0.211 0.763,0.682 1.762,1.032 2.659,0.432 0.276,-0.184 0.49,-0.464 0.775,-0.639 C -1.505,-1.63 0.665,-1.32 0,0" /></g><g
           transform="translate(41.4028,26.5754)"
           id="g72"><path
             id="path74"
             style="fill:none;stroke:#003429;stroke-width:0.25;stroke-linecap:butt;stroke-linejoin:miter;stroke-miterlimit:10;stroke-dasharray:none;stroke-opacity:1"
             d="m 0,0 c -0.004,0.008 -1.297,2.575 -1.297,2.575 h -14.243 -1.726 -14.242 c 0,0 -1.294,-2.567 -1.298,-2.575 -0.664,-1.32 1.506,-1.63 2.202,-1.2 0.285,0.175 0.5,0.455 0.776,0.639 0.896,0.6 1.895,0.25 2.658,-0.432 0,0 2.505,-2.681 4.831,-0.211 0.777,0.825 1.722,1.268 2.771,0.708 0.95,-0.507 1.67,-1.501 2.679,-1.875 0.698,-0.259 1.466,-0.034 2.042,0.45 0.388,0.325 0.593,0.829 1.017,1.102 1.099,0.709 2.452,0.582 3.363,-0.385 2.326,-2.47 4.831,0.211 4.831,0.211 0.763,0.682 1.762,1.032 2.659,0.432 0.276,-0.184 0.49,-0.464 0.775,-0.639 C -1.505,-1.63 0.665,-1.32 0,0 Z" /></g><g
           transform="translate(9.3018,28.7023)"
           id="g76"><path
             id="path78"
             style="fill:#f8a41a;fill-opacity:1;fill-rule:nonzero;stroke:none"
             d="m 0,0 v 0 c 0,5.897 6.774,12.522 15.394,12.522 v 0 c 8.62,0 15.95,-6.625 15.95,-12.522 v 0 z" /></g><g
           transform="translate(9.3018,28.7023)"
           id="g80"><path
             id="path82"
             style="fill:none;stroke:#8c5300;stroke-width:0.25;stroke-linecap:butt;stroke-linejoin:miter;stroke-miterlimit:10;stroke-dasharray:none;stroke-opacity:1"
             d="m 0,0 v 0 c 0,5.897 6.774,12.522 15.394,12.522 v 0 c 8.62,0 15.95,-6.625 15.95,-12.522 v 0 z" /></g><g
           transform="translate(33.8244,38.4123)"
           id="g84"><path
             id="path86"
             style="fill:#f7971c;fill-opacity:1;fill-rule:nonzero;stroke:none"
             d="M 0,0 C -1.871,-4.954 -6.173,-7.849 -9.857,-9.485 H 6.395 C 6.324,-5.692 3.204,-1.745 0,0" /></g><g
           transform="translate(19.1156,36.8921)"
           id="g88"><path
             id="path90"
             style="fill:#ffffff;fill-opacity:1;fill-rule:nonzero;stroke:none"
             d="m 0,0 c -0.313,-0.373 -0.704,-0.56 -0.873,-0.418 -0.169,0.142 -0.052,0.559 0.261,0.932 0.314,0.373 0.705,0.56 0.873,0.418 C 0.43,0.79 0.313,0.373 0,0" /></g><g
           transform="translate(30.4147,36.8031)"
           id="g92"><path
             id="path94"
             style="fill:#ffffff;fill-opacity:1;fill-rule:nonzero;stroke:none"
             d="M 0,0 C -0.422,-0.244 -0.853,-0.286 -0.964,-0.095 -1.074,0.096 -0.821,0.449 -0.4,0.692 0.022,0.936 0.454,0.978 0.564,0.787 0.674,0.596 0.422,0.244 0,0" /></g><g
           transform="translate(24.8666,36.8902)"
           id="g96"><path
             id="path98"
             style="fill:#ffffff;fill-opacity:1;fill-rule:nonzero;stroke:none"
             d="m 0,0 c -0.101,-0.476 -0.359,-0.825 -0.575,-0.779 -0.215,0.046 -0.308,0.469 -0.207,0.945 0.102,0.477 0.359,0.826 0.575,0.78 C 0.009,0.9 0.101,0.476 0,0" /></g><g
           transform="translate(22.24,38.6762)"
           id="g100"><path
             id="path102"
             style="fill:#ffffff;fill-opacity:1;fill-rule:nonzero;stroke:none"
             d="M 0,0 C 0.322,-0.366 0.448,-0.78 0.282,-0.926 0.117,-1.072 -0.278,-0.894 -0.6,-0.528 -0.922,-0.162 -1.048,0.253 -0.882,0.398 -0.717,0.544 -0.322,0.366 0,0" /></g><g
           transform="translate(27.7319,38.5652)"
           id="g104"><path
             id="path106"
             style="fill:#ffffff;fill-opacity:1;fill-rule:nonzero;stroke:none"
             d="M 0,0 C 0.453,-0.18 0.754,-0.492 0.672,-0.697 0.591,-0.902 0.158,-0.922 -0.295,-0.743 -0.748,-0.563 -1.049,-0.251 -0.967,-0.046 -0.886,0.159 -0.453,0.18 0,0" /></g><g
           transform="translate(15.4039,23.18)"
           id="g108"><path
             id="path110"
             style="fill:#c92127;fill-opacity:1;fill-rule:nonzero;stroke:none"
             d="m 0,0 7.933,-2.255 h 4.915 c 0,0 -4.775,2.169 -12.848,2.255" /></g><g
           transform="translate(38.1969,16.6491)"
           id="g112"><path
             id="path114"
             style="fill:#944c22;fill-opacity:1;fill-rule:nonzero;stroke:none"
             d="m 0,0 h -26.394 c -1.193,0 -2.17,0.976 -2.17,2.17 v 0.092 c 0,1.193 0.977,2.169 2.17,2.169 H 0 c 1.193,0 2.17,-0.976 2.17,-2.169 V 2.17 C 2.17,0.976 1.193,0 0,0" /></g><g
           transform="translate(38.1969,16.6491)"
           id="g116"><path
             id="path118"
             style="fill:none;stroke:#451500;stroke-width:0.25;stroke-linecap:butt;stroke-linejoin:miter;stroke-miterlimit:10;stroke-dasharray:none;stroke-opacity:1"
             d="m 0,0 h -26.394 c -1.193,0 -2.17,0.976 -2.17,2.17 v 0.092 c 0,1.193 0.977,2.169 2.17,2.169 H 0 c 1.193,0 2.17,-0.976 2.17,-2.169 V 2.17 C 2.17,0.976 1.193,0 0,0 Z" /></g><g
           transform="translate(22.7562,21.0805)"
           id="g120"><path
             id="path122"
             style="fill:#8c401f;fill-opacity:1;fill-rule:nonzero;stroke:none"
             d="m 0,0 c 0,0 7.588,-2.209 9.869,-3.915 l 4.129,3.852 z" /></g><g
           transform="translate(32.5022,18.4008)"
           id="g124"><path
             id="path126"
             style="fill:#fcc10e;fill-opacity:1;fill-rule:nonzero;stroke:none"
             d="M 0,0 4.721,4.9 -18.256,4.911 C -18.256,4.911 -7.797,4.187 0,0" /></g><g
           transform="translate(32.5022,18.4008)"
           id="g128"><path
             id="path130"
             style="fill:none;stroke:#6b3f00;stroke-width:0.25;stroke-linecap:butt;stroke-linejoin:miter;stroke-miterlimit:10;stroke-dasharray:none;stroke-opacity:1"
             d="M 0,0 4.721,4.9 -18.256,4.911 C -18.256,4.911 -7.797,4.187 0,0 Z" /></g><g
           transform="translate(10.1921,29.6131)"
           id="g132"><path
             id="path134"
             style="fill:#fbba5d;fill-opacity:1;fill-rule:nonzero;stroke:none"
             d="M 0,0 C 0,0 1.899,8.38 11.301,10.242 11.301,10.242 4.245,6.291 0,0" /></g></g></g></g>
             </svg>