<svg xmlns="http://www.w3.org/2000/svg" viewBox="0 0 512 512" style="enable-background:new 0 0 512 512" xml:space="preserve"><path style="fill:#f79e73" d="M512 256C512 114.62 397.38 0 256 0S0 114.61 0 256c0 121.57 84.74 223.35 198.38 249.49l312.59-226.37c.68-7.61 1.03-15.32 1.03-23.12z"/><path style="fill:#f37c4a" d="m510.95 279.12-239.2-239.2L256 373.87l-111.31 77.91 53.7 53.7A256.82 256.82 0 0 0 256 512c133.59 0 243.26-102.33 254.95-232.88z"/><path style="fill:#fff" d="M256 33.4a22.26 22.26 0 0 0-22.26 22.25v112.31h44.52V55.67c0-12.3-9.96-22.27-22.26-22.27z"/><path style="fill:#394449" d="m256 145.7-22.26 43.52 77.91-21.25V145.7z"/><path style="fill:#57676e" d="M256 145.7h-55.65v22.27L256 189.22zM233.74 318.23 256 396.14h55.65v-55.65z"/><path style="fill:#748993" d="m256 318.23-55.65 22.26v55.65H256z"/><path style="fill:#c4d3d9" d="m256 167.97-29.55 86.26L256 340.49h55.65V167.97z"/><path style="fill:#fff" d="M200.35 167.97H256v172.52h-55.65z"/><path style="fill:#e64a55" d="m256 190.23-17.73 80.69L256 318.23h33.39v-128z"/><path style="fill:#f37c4a" d="M222.61 190.23H256v128h-33.39z"/><path style="fill:#a2b1b7" d="M322.77 373.88H256l-50.09 55.65L367.3 418.4a44.65 44.65 0 0 0-44.52-44.52z"/><path style="fill:#c4d3d9" d="M256 440.66 144.69 418.4a44.65 44.65 0 0 1 44.52-44.52H256v66.78z"/><path style="fill:#394449" d="m255.99 418.4-14.59 16.7 14.59 16.69h111.3V418.4z"/><path style="fill:#57676e" d="M144.69 418.4h111.3v33.39h-111.3z"/></svg>