<?xml version="1.0" encoding="UTF-8" standalone="no"?>
<svg
   xmlns:dc="http://purl.org/dc/elements/1.1/"
   xmlns:cc="http://creativecommons.org/ns#"
   xmlns:rdf="http://www.w3.org/1999/02/22-rdf-syntax-ns#"
   xmlns:svg="http://www.w3.org/2000/svg"
   xmlns="http://www.w3.org/2000/svg"
   viewBox="0 0 66.666664 66.666664"
   height="66.666664"
   width="66.666664"
   xml:space="preserve"
   id="svg2"
   version="1.1"><metadata
     id="metadata8"><rdf:RDF><cc:Work
         rdf:about=""><dc:format>image/svg+xml</dc:format><dc:type
           rdf:resource="http://purl.org/dc/dcmitype/StillImage" /></cc:Work></rdf:RDF></metadata><defs
     id="defs6"><clipPath
       id="clipPath18"
       clipPathUnits="userSpaceOnUse"><path
         id="path16"
         d="M 0,50 H 50 V 0 H 0 Z" /></clipPath><clipPath
       id="clipPath30"
       clipPathUnits="userSpaceOnUse"><path
         id="path28"
         d="M 0,50 H 50 V 0 H 0 Z" /></clipPath><linearGradient
       id="linearGradient52"
       spreadMethod="pad"
       gradientTransform="matrix(0,-36.944115,-36.944115,0,26.510639,44.042553)"
       gradientUnits="userSpaceOnUse"
       y2="0"
       x2="1"
       y1="0"
       x1="0"><stop
         id="stop48"
         offset="0"
         style="stop-opacity:1;stop-color:#ffd547" /><stop
         id="stop50"
         offset="1"
         style="stop-opacity:1;stop-color:#feab53" /></linearGradient><clipPath
       id="clipPath62"
       clipPathUnits="userSpaceOnUse"><path
         id="path60"
         d="M 0,50 H 50 V 0 H 0 Z" /></clipPath></defs><g
     transform="matrix(1.3333333,0,0,-1.3333333,0,66.666667)"
     id="g10"><g
       id="g12"><g
         clip-path="url(#clipPath18)"
         id="g14"><g
           transform="translate(48.9362,25)"
           id="g20"><path
             id="path22"
             style="fill:#cae6ff;fill-opacity:1;fill-rule:nonzero;stroke:none"
             d="m 0,0 c 0,-13.22 -10.717,-23.936 -23.936,-23.936 -13.22,0 -23.936,10.716 -23.936,23.936 0,13.22 10.716,23.936 23.936,23.936 C -10.717,23.936 0,13.22 0,0" /></g></g></g><g
       id="g24"><g
         clip-path="url(#clipPath30)"
         id="g26"><g
           transform="translate(25.4468,8.734)"
           id="g32"><path
             id="path34"
             style="fill:#e3fbff;fill-opacity:1;fill-rule:nonzero;stroke:none"
             d="m 0,0 h 13.617 c 0,0 1.947,0.266 1.947,2.436 0,2.17 -2.138,2.266 -2.138,2.266 h -4.5 c 0,0 -1.277,-0.032 -1.277,1.468 0,1.5 1.979,1.245 1.979,1.245 l 8.904,0.016 c 0,0 2.298,-0.176 2.298,3.112 0,3.287 -3.766,2.744 -3.766,2.744 0,0 -2.904,-0.255 -2.904,1.404 0,1.66 2.521,1.341 2.521,1.341 l 3.638,0.025 c 0,0 2.107,0.007 2.107,3.454 0,3.989 -3.607,3.766 -3.607,3.766 l -9.287,0.002 c 0,0 -1.372,-0.002 -1.372,2.04 0,2.043 2.01,2.043 2.01,2.043 0,0 4.053,-0.096 4.053,3.51 0,3.607 -3.01,3.702 -3.01,3.702 h -24.341 c 0,0 -3.255,-0.095 -3.255,-3.287 0,-4.021 2.17,-3.957 2.17,-3.957 l 3.926,-0.032 c 0,0 1.181,0.032 1.181,-1.245 0,-1.276 -1.085,-1.436 -1.085,-1.436 h -6.575 c 0,0 -2.362,-0.287 -2.362,-2.84 0,-2.554 1.692,-3.16 2.107,-3.16 0.415,0 5.904,-0.032 5.904,-0.032 0,0 1.277,-0.053 1.277,-1.925 0,-1.873 -1.341,-2.032 -1.82,-2.032 -0.478,0 -3.287,0.032 -3.638,0.032 -0.351,0 -2.362,-0.862 -2.362,-2.905 0,-2.042 1.117,-3 1.883,-3 0.766,0 2.394,-0.032 2.394,-0.032 0,0 0.926,-0.223 0.926,-1.468 0,-1.244 -0.734,-1.276 -1.149,-1.276 -0.415,0 -2.266,-0.064 -2.266,-0.064 0,0 -1.724,-0.222 -1.724,-2.649 0,-2.904 1.053,-3.266 2.202,-3.266 z" /></g></g></g><g
       id="g36"><g
         id="g38"><g
           id="g44"><g
             id="g46"><path
               id="path54"
               style="fill:url(#linearGradient52);stroke:none"
               d="M 23.021,44.766 16.298,24.511 25.49,24.34 20.213,6.043 36.724,28.255 h -9.448 l 6.554,16.511 z" /></g></g></g></g><g
       id="g56"><g
         clip-path="url(#clipPath62)"
         id="g58"><g
           transform="translate(20.2128,6.0426)"
           id="g64"><path
             id="path66"
             style="fill:none;stroke:#bc6f00;stroke-width:0.25;stroke-linecap:round;stroke-linejoin:round;stroke-miterlimit:10;stroke-dasharray:none;stroke-opacity:1"
             d="M 0,0 16.511,22.213 H 7.064 l 6.553,16.51 H 2.809 l -6.724,-20.255 9.192,-0.17 z" /></g></g></g></g>
             </svg>