<svg xmlns="http://www.w3.org/2000/svg" viewBox="0 0 512 512"
                            style="enable-background:new 0 0 512 512" xml:space="preserve">
                            <circle style="fill:#273b7a" cx="256" cy="256" r="256" />
                            <path style="fill:#121149"
                                d="M498.91 337 298.03 136.1l-20.2-2.08-10.82.72-105 2.41-8.58 213.29L309.39 506.4c89.13-18.91 161.12-84.2 189.52-169.42z" />
                            <path style="fill:#71e2ef"
                                d="M157.48 351.6a7.76 7.76 0 0 1-7.75-7.76V156.8a31.57 31.57 0 0 1 31.53-31.54h93a31.57 31.57 0 0 1 31.53 31.54v46.5a7.76 7.76 0 0 1-15.52 0v-46.5c0-8.84-7.18-16.02-16.02-16.02h-92.99a16.04 16.04 0 0 0-16.02 16.02v187.04a7.76 7.76 0 0 1-7.76 7.76z" />
                            <path style="fill:#38c6d9"
                                d="M368.3 230.67h-.43a70.28 70.28 0 0 0-139.68 0h-.43a7.76 7.76 0 0 0 0 15.52H368.3a7.76 7.76 0 0 0 0-15.52z" />
                            <path style="fill:#02b2b2"
                                d="M368.3 230.67h-.43a70.28 70.28 0 0 0-69.84-62.51h-.08v78.03h70.36a7.76 7.76 0 0 0 0-15.52z" />
                            <path style="fill:#fff"
                                d="M298.03 291.67a7.76 7.76 0 0 1-7.76-7.76v-10.34a7.76 7.76 0 0 1 15.52 0v10.34a7.76 7.76 0 0 1-7.76 7.76zM298.03 359.45a7.76 7.76 0 0 1-7.76-7.76v-16.94a7.76 7.76 0 0 1 15.52 0v16.94a7.76 7.76 0 0 1-7.76 7.76zm0-33.9a7.76 7.76 0 0 1-7.76-7.75v-16.94a7.76 7.76 0 0 1 15.52 0v16.94a7.76 7.76 0 0 1-7.76 7.76zM298.03 386.74a7.76 7.76 0 0 1-7.76-7.76v-10.34a7.76 7.76 0 0 1 15.52 0v10.34a7.76 7.76 0 0 1-7.76 7.76zM365.88 379.45a7.76 7.76 0 0 1-7.36-5.3l-6.54-19.63a7.76 7.76 0 0 1 14.72-4.9l6.54 19.62a7.76 7.76 0 0 1-7.36 10.21zm-13.09-39.25a7.76 7.76 0 0 1-7.35-5.3l-6.55-19.63a7.75 7.75 0 1 1 14.72-4.9l6.54 19.62a7.75 7.75 0 0 1-7.36 10.21zm-13.08-39.25a7.76 7.76 0 0 1-7.36-5.3l-6.54-19.63a7.76 7.76 0 1 1 14.72-4.9l6.54 19.62a7.75 7.75 0 0 1-7.36 10.21zM230.19 379.45a7.75 7.75 0 0 1-7.36-10.21l6.54-19.62a7.76 7.76 0 0 1 14.72 4.9l-6.54 19.63a7.76 7.76 0 0 1-7.36 5.3zm13.08-39.25a7.75 7.75 0 0 1-7.36-10.21l6.54-19.62a7.75 7.75 0 1 1 14.72 4.9l-6.54 19.63a7.76 7.76 0 0 1-7.36 5.3zm13.09-39.25a7.75 7.75 0 0 1-7.36-10.21l6.54-19.62a7.76 7.76 0 0 1 14.71 4.9l-6.54 19.63a7.76 7.76 0 0 1-7.35 5.3z" />
                        </svg>