<?xml version="1.0" encoding="UTF-8" standalone="no"?>
<svg
   xmlns:dc="http://purl.org/dc/elements/1.1/"
   xmlns:cc="http://creativecommons.org/ns#"
   xmlns:rdf="http://www.w3.org/1999/02/22-rdf-syntax-ns#"
   xmlns:svg="http://www.w3.org/2000/svg"
   xmlns="http://www.w3.org/2000/svg"
   viewBox="0 0 66.666664 66.666664"
   height="66.666664"
   width="66.666664"
   xml:space="preserve"
   id="svg2"
   version="1.1"><metadata
     id="metadata8"><rdf:RDF><cc:Work
         rdf:about=""><dc:format>image/svg+xml</dc:format><dc:type
           rdf:resource="http://purl.org/dc/dcmitype/StillImage" /></cc:Work></rdf:RDF></metadata><defs
     id="defs6"><clipPath
       id="clipPath18"
       clipPathUnits="userSpaceOnUse"><path
         id="path16"
         d="M 0,50 H 50 V 0 H 0 Z" /></clipPath><clipPath
       id="clipPath30"
       clipPathUnits="userSpaceOnUse"><path
         id="path28"
         d="M 0,50 H 50 V 0 H 0 Z" /></clipPath></defs><g
     transform="matrix(1.3333333,0,0,-1.3333333,0,66.666667)"
     id="g10"><g
       id="g12"><g
         clip-path="url(#clipPath18)"
         id="g14"><g
           transform="translate(48.9362,25)"
           id="g20"><path
             id="path22"
             style="fill:#ffdffe;fill-opacity:1;fill-rule:nonzero;stroke:none"
             d="m 0,0 c 0,-13.22 -10.717,-23.936 -23.936,-23.936 -13.22,0 -23.936,10.716 -23.936,23.936 0,13.22 10.716,23.936 23.936,23.936 C -10.717,23.936 0,13.22 0,0" /></g></g></g><g
       id="g24"><g
         clip-path="url(#clipPath30)"
         id="g26"><g
           transform="translate(12.1897,24.2393)"
           id="g32"><path
             id="path34"
             style="fill:#77cbd2;fill-opacity:1;fill-rule:nonzero;stroke:none"
             d="m 0,0 13.784,13.784 c 3.185,3.185 8.35,3.185 11.535,0 v 0 c 3.186,-3.186 3.186,-8.35 0,-11.536 L 11.535,-11.535 c -3.185,-3.186 -8.35,-3.186 -11.535,0 v 0 C -3.185,-8.35 -3.185,-3.185 0,0" /></g><g
           transform="translate(12.383,12.5168)"
           id="g36"><path
             id="path38"
             style="fill:#f4989e;fill-opacity:1;fill-rule:nonzero;stroke:none"
             d="m 0,0 c 0,0 -2.31,2.165 -2.485,4.697 0,0 -0.334,2.534 0.388,4.032 0.721,1.499 1.147,2.236 2.519,3.609 1.372,1.372 4.66,4.659 4.66,4.659 l 1.404,1.405 H 6.741 L 18.053,7.09 V 6.898 L 13.064,1.824 10.723,-0.372 c 0,0 -2.43,-1.991 -4.662,-1.815 C 3.829,-2.011 3.093,-2.058 1.919,-1.339 0.745,-0.62 0,0 0,0" /></g><g
           transform="translate(12.1897,24.2393)"
           id="g40"><path
             id="path42"
             style="fill:none;stroke:#530025;stroke-width:0.25;stroke-linecap:butt;stroke-linejoin:miter;stroke-miterlimit:10;stroke-dasharray:none;stroke-opacity:1"
             d="m 0,0 13.784,13.784 c 3.185,3.185 8.35,3.185 11.535,0 v 0 c 3.186,-3.186 3.186,-8.35 0,-11.536 L 11.535,-11.535 c -3.185,-3.186 -8.35,-3.186 -11.535,0 v 0 C -3.185,-8.35 -3.185,-3.185 0,0 Z" /></g><g
           transform="translate(24.8493,25.1933)"
           id="g44"><path
             id="path46"
             style="fill:none;stroke:#530025;stroke-width:0.25;stroke-linecap:round;stroke-linejoin:round;stroke-miterlimit:10;stroke-dasharray:none;stroke-opacity:1"
             d="M 0,0 5.683,-5.683" /></g><g
           transform="translate(21.7979,28.2447)"
           id="g48"><path
             id="path50"
             style="fill:none;stroke:#530025;stroke-width:0.25;stroke-linecap:round;stroke-linejoin:round;stroke-miterlimit:10;stroke-dasharray:none;stroke-opacity:1"
             d="M 0,0 1.436,-1.436" /></g><g
           transform="translate(18.9965,31.046)"
           id="g52"><path
             id="path54"
             style="fill:none;stroke:#530025;stroke-width:0.25;stroke-linecap:round;stroke-linejoin:round;stroke-miterlimit:10;stroke-dasharray:none;stroke-opacity:1"
             d="M 0,0 1.291,-1.291" /></g><g
           transform="translate(36.9787,34.2553)"
           id="g56"><path
             id="path58"
             style="fill:none;stroke:#001365;stroke-width:0.25;stroke-linecap:round;stroke-linejoin:round;stroke-miterlimit:10;stroke-dasharray:none;stroke-opacity:1"
             d="M 0,0 C 0,0 1.277,-3.489 -1.319,-5.787" /></g><g
           transform="translate(33.8723,26.8085)"
           id="g60"><path
             id="path62"
             style="fill:none;stroke:#001365;stroke-width:0.25;stroke-linecap:round;stroke-linejoin:round;stroke-miterlimit:10;stroke-dasharray:none;stroke-opacity:1"
             d="M 0,0 -2.936,-3.021" /></g><g
           transform="translate(27.3192,19.9149)"
           id="g64"><path
             id="path66"
             style="fill:none;stroke:#760049;stroke-width:0.25;stroke-linecap:round;stroke-linejoin:round;stroke-miterlimit:10;stroke-dasharray:none;stroke-opacity:1"
             d="M 0,0 -3.745,-3.745" /></g><g
           transform="translate(21.5319,14.4255)"
           id="g68"><path
             id="path70"
             style="fill:none;stroke:#760049;stroke-width:0.25;stroke-linecap:round;stroke-linejoin:round;stroke-miterlimit:10;stroke-dasharray:none;stroke-opacity:1"
             d="m 0,0 c 0,0 -1.894,-2.106 -4.489,-1.532 -2.985,0.661 -4.197,2.96 -4.197,2.96" /></g><g
           transform="translate(12.2553,19.3192)"
           id="g72"><path
             id="path74"
             style="fill:none;stroke:#760049;stroke-width:0.25;stroke-linecap:round;stroke-linejoin:round;stroke-miterlimit:10;stroke-dasharray:none;stroke-opacity:1"
             d="M 0,0 C 0,0 -0.043,1.915 1.66,3.064" /></g></g></g></g>
             </svg>