<svg xmlns="http://www.w3.org/2000/svg" viewBox="0 0 64 64"><g data-name="tire-automobile-car-car Parts"><path fill="#2d2d30" d="M7 47h54v6H7z"/><path fill="#57565c" d="M61 53v3a4.71 4.71 0 0 1-.1 1H7.1a4.71 4.71 0 0 1-.1-1v-3zm0-9v3H7v-3a4.71 4.71 0 0 1 .1-1h53.8a4.71 4.71 0 0 1 .1 1z"/><path fill="#2d2d30" d="M7.1 57h53.8a5 5 0 0 1-4.9 4H12a5 5 0 0 1-4.9-4zm53.8-14H7.1a5 5 0 0 1 4.9-4h44a5 5 0 0 1 4.9 4z"/><path fill="#2d2d30" d="M30 3a27 27 0 1 0 27 27A27 27 0 0 0 30 3Zm0 41a14 14 0 1 1 14-14 14 14 0 0 1-14 14Z"/><path fill="#898890" d="M43.68 27a14.22 14.22 0 0 1 0 6h-6.44l4.55 4.54a13.98 13.98 0 0 1-4.24 4.25L33 37.24v6.44a14.22 14.22 0 0 1-6 0v-6.44l-4.55 4.55a13.98 13.98 0 0 1-4.24-4.25L22.76 33h-6.44a14.22 14.22 0 0 1 0-6h6.44l-4.55-4.54a13.9 13.9 0 0 1 4.25-4.25L27 22.76v-6.44a14.22 14.22 0 0 1 6 0v6.44l4.54-4.55a13.9 13.9 0 0 1 4.25 4.25L37.24 27Z"/><path fill="#c6c5ca" d="M30 12a18 18 0 1 0 18 18 18 18 0 0 0-18-18Zm0 32a14 14 0 1 1 14-14 14 14 0 0 1-14 14Z"/><path d="M30 11a19 19 0 1 0 19 19 19.02 19.02 0 0 0-19-19Zm0 36a17 17 0 1 1 17-17 17.02 17.02 0 0 1-17 17Z"/><path d="M56.81 38.06A28 28 0 1 0 2 30a27.8 27.8 0 0 0 4 14.4V56a6 6 0 0 0 6 6h44a6 6 0 0 0 6-6V44a6 6 0 0 0-5.19-5.94ZM59.44 42h-4.15c.31-.65.59-1.31.85-1.99a3.99 3.99 0 0 1 3.3 1.99Zm-52.43.12a25.73 25.73 0 0 1-1.85-4.43l1.92-.51-.52-1.93-1.91.51A25.73 25.73 0 0 1 4.03 31H6v-2H4.03a25.73 25.73 0 0 1 .62-4.76l1.91.51.52-1.93-1.92-.51a25.73 25.73 0 0 1 1.85-4.43l1.71.99 1-1.74-1.71-.98a26.43 26.43 0 0 1 2.92-3.8l1.39 1.39 1.42-1.42-1.39-1.39a26.43 26.43 0 0 1 3.8-2.92l.98 1.71 1.74-1-.99-1.71a25.73 25.73 0 0 1 4.43-1.85l.51 1.92 1.93-.52-.51-1.91A25.73 25.73 0 0 1 29 4.03V6h2V4.03a25.73 25.73 0 0 1 4.76.62l-.51 1.91 1.93.52.51-1.92a25.73 25.73 0 0 1 4.43 1.85l-.99 1.71 1.74 1 .98-1.71a26.43 26.43 0 0 1 3.8 2.92l-1.39 1.39 1.42 1.42 1.39-1.39a26.43 26.43 0 0 1 2.92 3.8l-1.71.98 1 1.74 1.71-.99a25.73 25.73 0 0 1 1.85 4.43l-1.92.51.52 1.93 1.91-.51a25.73 25.73 0 0 1 .62 4.76H54v2h1.97a25.73 25.73 0 0 1-.62 4.76l-1.91-.51-.52 1.93 1.92.51a25.73 25.73 0 0 1-1.85 4.43l-1.71-.99-1 1.74 1.71.98a26.43 26.43 0 0 1-2.92 3.8l-1.39-1.39-1.42 1.42 1.39 1.39a26.43 26.43 0 0 1-3.8 2.92l-.98-1.71-1.74 1 .99 1.71a25.73 25.73 0 0 1-4.43 1.85l-.51-1.92-1.93.52.51 1.91a25.73 25.73 0 0 1-4.76.62V54h-2v1.97a25.73 25.73 0 0 1-4.76-.62l.51-1.91-1.93-.52-.51 1.92a25.73 25.73 0 0 1-4.43-1.85l.99-1.71-1.74-1-.98 1.71a26.43 26.43 0 0 1-3.8-2.92l1.39-1.39-1.42-1.42-1.39 1.39a26.43 26.43 0 0 1-2.92-3.8l1.71-.98-1-1.74Zm5.7 9.88H8v-4.71A28.36 28.36 0 0 0 12.71 52ZM8 54h7.6a27.48 27.48 0 0 0 4.03 2H8Zm48 6H12a3.98 3.98 0 0 1-3.44-2h50.88A3.98 3.98 0 0 1 56 60Zm4-4H40.37a27.48 27.48 0 0 0 4.03-2H60Zm0-4H47.29a28.47 28.47 0 0 0 4.14-4H60Zm0-6h-7.04c.45-.65.88-1.31 1.27-2H60Z"/><path d="M30 15a15 15 0 1 0 15 15 15.02 15.02 0 0 0-15-15Zm11.57 9.1a12.68 12.68 0 0 1 .79 1.9h-2.7ZM34 17.64a12.68 12.68 0 0 1 1.9.79L34 20.34Zm-8 0v2.7l-1.9-1.91a12.68 12.68 0 0 1 1.9-.79Zm-7.57 6.46 1.91 1.9h-2.7a12.68 12.68 0 0 1 .79-1.9Zm0 11.8a12.68 12.68 0 0 1-.79-1.9h2.7ZM26 42.36a11.86 11.86 0 0 1-1.91-.8L26 39.65Zm8 0v-2.71l1.91 1.91a11.86 11.86 0 0 1-1.91.8Zm7.57-6.46L39.66 34h2.7a12.68 12.68 0 0 1-.79 1.9ZM37.24 32a.99.99 0 0 0-.92.62 1 1 0 0 0 .21 1.09l3.96 3.94a13.1 13.1 0 0 1-2.83 2.83l-3.95-3.95a1 1 0 0 0-1.09-.21.99.99 0 0 0-.62.92v5.59a11.85 11.85 0 0 1-4 0v-5.59a.99.99 0 0 0-.62-.92 1 1 0 0 0-1.09.21l-3.95 3.95a13.1 13.1 0 0 1-2.83-2.83l3.96-3.94a1 1 0 0 0 .21-1.09.99.99 0 0 0-.92-.62h-5.59a11.85 11.85 0 0 1 0-4h5.59a.99.99 0 0 0 .92-.62 1 1 0 0 0-.21-1.09l-3.96-3.94a13.19 13.19 0 0 1 2.84-2.84l3.94 3.96a1 1 0 0 0 .71.29 1.01 1.01 0 0 0 1-1v-5.59a11.85 11.85 0 0 1 4 0v5.59a1.01 1.01 0 0 0 1 1 1 1 0 0 0 .71-.29l3.94-3.96a13.19 13.19 0 0 1 2.84 2.84l-3.96 3.94a1 1 0 0 0-.21 1.09.99.99 0 0 0 .92.62h5.59a11.85 11.85 0 0 1 0 4Z"/></g></svg>