<?xml version="1.0" encoding="UTF-8" standalone="no"?>
<svg
   xmlns:dc="http://purl.org/dc/elements/1.1/"
   xmlns:cc="http://creativecommons.org/ns#"
   xmlns:rdf="http://www.w3.org/1999/02/22-rdf-syntax-ns#"
   xmlns:svg="http://www.w3.org/2000/svg"
   xmlns="http://www.w3.org/2000/svg"
   viewBox="0 0 85.333336 85.333336"
   height="85.333336"
   width="85.333336"
   xml:space="preserve"
   id="svg2"
   version="1.1"><metadata
     id="metadata8"><rdf:RDF><cc:Work
         rdf:about=""><dc:format>image/svg+xml</dc:format><dc:type
           rdf:resource="http://purl.org/dc/dcmitype/StillImage" /></cc:Work></rdf:RDF></metadata><defs
     id="defs6"><clipPath
       id="clipPath18"
       clipPathUnits="userSpaceOnUse"><path
         id="path16"
         d="M 0,64 H 64 V 0 H 0 Z" /></clipPath></defs><g
     transform="matrix(1.3333333,0,0,-1.3333333,0,85.333333)"
     id="g10"><g
       id="g12"><g
         clip-path="url(#clipPath18)"
         id="g14"><g
           transform="translate(50.9615,22.0252)"
           id="g20"><path
             id="path22"
             style="fill:#7ec71f;fill-opacity:1;fill-rule:nonzero;stroke:none"
             d="m 0,0 h -43.411 c -1.433,0 -2.595,1.162 -2.595,2.596 v 22.912 c 0,1.434 1.162,2.596 2.595,2.596 H 0 c 1.434,0 2.596,-1.162 2.596,-2.596 V 2.596 C 2.596,1.162 1.434,0 0,0" /></g><g
           transform="translate(59.9572,43.08)"
           id="g24"><path
             id="path26"
             style="fill:#ffffff;fill-opacity:1;fill-rule:nonzero;stroke:none"
             d="m 0,0 c 0,0 3.617,-0.626 3.617,-3.965 v -6.087 C 3.617,-13.043 0,-13.727 0,-13.727 Z" /></g><g
           transform="translate(50.8478,19.0108)"
           id="g28"><path
             id="path30"
             style="fill:none;stroke:#ffffff;stroke-width:2;stroke-linecap:butt;stroke-linejoin:miter;stroke-miterlimit:10;stroke-dasharray:none;stroke-opacity:1"
             d="m 0,0 h -43.183 c -3.443,0 -6.234,2.791 -6.234,6.234 v 21.433 c 0,3.443 2.791,6.234 6.234,6.234 H 0 c 3.443,0 6.234,-2.791 6.234,-6.234 V 6.234 C 6.234,2.791 3.443,0 0,0 Z" /></g><g
           transform="translate(25.6105,5.0379)"
           id="g32"><path
             id="path34"
             style="fill:#ffffff;fill-opacity:1;fill-rule:nonzero;stroke:none"
             d="M 0,0 H -0.785 V 4.74 L -1.581,4.252 v 0.812 l 0.796,0.531 0.785,0 z" /></g><g
           transform="translate(29.0913,5.9437)"
           id="g36"><path
             id="path38"
             style="fill:#ffffff;fill-opacity:1;fill-rule:nonzero;stroke:none"
             d="m 0,0 c 0.132,0.146 0.198,0.353 0.198,0.626 v 2.543 c 0,0.272 -0.065,0.48 -0.196,0.625 -0.131,0.145 -0.336,0.217 -0.616,0.217 -0.279,0 -0.485,-0.072 -0.616,-0.217 C -1.36,3.649 -1.426,3.441 -1.426,3.169 V 0.626 c 0,-0.273 0.066,-0.48 0.198,-0.626 0.132,-0.145 0.337,-0.217 0.614,-0.217 0.277,0 0.482,0.072 0.614,0.217 m -1.805,-0.544 c -0.27,0.28 -0.406,0.67 -0.406,1.17 v 2.543 c 0,0.503 0.136,0.893 0.408,1.171 0.272,0.279 0.668,0.418 1.189,0.418 0.524,0 0.92,-0.138 1.191,-0.416 C 0.848,4.066 0.983,3.674 0.983,3.169 V 0.626 c 0,-0.504 -0.136,-0.893 -0.408,-1.172 -0.272,-0.279 -0.668,-0.417 -1.189,-0.417 -0.523,0 -0.92,0.139 -1.191,0.419" /></g><g
           transform="translate(33.2847,5.9437)"
           id="g40"><path
             id="path42"
             style="fill:#ffffff;fill-opacity:1;fill-rule:nonzero;stroke:none"
             d="m 0,0 c 0.132,0.146 0.198,0.353 0.198,0.626 v 2.543 c 0,0.272 -0.066,0.48 -0.196,0.625 -0.132,0.145 -0.336,0.217 -0.616,0.217 -0.279,0 -0.484,-0.072 -0.615,-0.217 C -1.36,3.649 -1.425,3.441 -1.425,3.169 V 0.626 c 0,-0.273 0.066,-0.48 0.198,-0.626 0.131,-0.145 0.337,-0.217 0.613,-0.217 0.278,0 0.482,0.072 0.614,0.217 m -1.805,-0.544 c -0.27,0.28 -0.405,0.67 -0.405,1.17 v 2.543 c 0,0.503 0.136,0.893 0.408,1.171 0.272,0.279 0.668,0.418 1.188,0.418 0.522,0 0.921,-0.138 1.191,-0.416 C 0.847,4.066 0.983,3.674 0.983,3.169 V 0.626 c 0,-0.504 -0.136,-0.893 -0.408,-1.172 -0.273,-0.279 -0.669,-0.417 -1.189,-0.417 -0.522,0 -0.92,0.139 -1.191,0.419" /></g><g
           transform="translate(39.1543,5.6786)"
           id="g44"><path
             id="path46"
             style="fill:#ffffff;fill-opacity:1;fill-rule:nonzero;stroke:none"
             d="M 0,0 C 0.051,0.057 0.077,0.14 0.077,0.248 V 0.814 C 0.077,0.916 0.051,0.996 0,1.053 -0.051,1.109 -0.121,1.137 -0.212,1.137 -0.304,1.137 -0.375,1.109 -0.425,1.053 -0.475,0.996 -0.5,0.915 -0.5,0.81 V 0.248 c 0,-0.111 0.025,-0.194 0.075,-0.25 0.05,-0.057 0.121,-0.084 0.213,-0.084 0.091,0 0.161,0.029 0.212,0.086 m -0.9,-0.438 c -0.162,0.172 -0.243,0.415 -0.243,0.724 v 0.481 c 0,0.311 0.081,0.553 0.243,0.726 0.161,0.173 0.391,0.26 0.688,0.26 0.298,0 0.528,-0.087 0.689,-0.26 C 0.639,1.32 0.719,1.075 0.719,0.76 V 0.286 c 0,-0.313 -0.08,-0.555 -0.243,-0.727 -0.163,-0.172 -0.393,-0.257 -0.688,-0.257 -0.297,0 -0.527,0.086 -0.688,0.26 m -1.882,3.693 c 0.051,0.058 0.078,0.14 0.078,0.249 v 0.565 c 0,0.102 -0.027,0.182 -0.078,0.238 -0.051,0.057 -0.121,0.085 -0.212,0.085 -0.091,0 -0.163,-0.028 -0.213,-0.085 C -3.257,4.251 -3.282,4.17 -3.282,4.065 V 3.504 c 0,-0.111 0.025,-0.194 0.075,-0.25 0.05,-0.057 0.122,-0.086 0.213,-0.086 0.091,0 0.161,0.029 0.212,0.087 M -0.45,4.954 H 0.238 L -2.801,-0.641 H -3.49 Z M -3.682,2.816 C -3.844,2.99 -3.924,3.231 -3.924,3.542 v 0.481 c 0,0.31 0.08,0.551 0.242,0.725 0.161,0.173 0.391,0.26 0.688,0.26 0.298,0 0.528,-0.087 0.69,-0.26 0.161,-0.174 0.241,-0.417 0.241,-0.733 V 3.542 c 0,-0.313 -0.08,-0.556 -0.243,-0.727 -0.163,-0.172 -0.392,-0.259 -0.688,-0.259 -0.297,0 -0.527,0.088 -0.688,0.26" /></g></g></g></g></svg>