<svg xmlns="http://www.w3.org/2000/svg" viewBox="0 0 475.88 475.88"
                            style="enable-background:new 0 0 475.877 475.877" xml:space="preserve">
                            <circle style="fill:#a2d4de" cx="237.94" cy="237.94" r="237.94" />
                            <path style="fill:#276d69"
                                d="M297.62 230.1c-35.3 29.47-37.65 11.9-48.12 1.42-10.27-10.27-27.06-12.57 1.41-48.11 28.36-35.38 109.72-63.02 109.72-63.02s-28.24 80.67-63.01 109.71z" />
                            <path style="fill:#355957"
                                d="M249.5 231.52c-10.27-10.27-27.06-12.57 1.42-48.11 28.35-35.38 109.71-63.02 109.71-63.02L249.5 231.52z" />
                            <path style="fill:#e79e2d"
                                d="M265.51 248.25c4.62-4.62-25.55-36.07-30.8-30.8L59.09 366.6l-12.23 10.68c4.8-3.94 9.23-7.69 11.29-9.74l176.41-149.96c2.65-2.64 11.5 3.9 19.13 11.68L73.3 409.64a238.94 238.94 0 0 0 32.52 26.2l10.53-11.97 149.16-175.62z" />
                            <path style="fill:#d68a28" d="m46.87 377.29-1.1.9.02.03 1.08-.94z" />
                            <path style="fill:#d68a28"
                                d="M234.56 217.58 58.15 367.54c-2.06 2.06-6.48 5.8-11.28 9.74l-1.08.94a238.76 238.76 0 0 0 27.52 31.42c27.67-27.65 180.38-180.38 180.38-180.38-7.62-7.78-16.48-14.32-19.13-11.68z" />
                            <path style="fill:#cdcccb"
                                d="M234.78 217.37 92.59 337.06l53.3 53.3 119.69-142.2c4.38-4.37-25.82-35.78-30.8-30.79z" />
                            <path style="fill:#b1b1b2"
                                d="M234.78 217.37 92.59 337.06l26.68 26.67s135.48-133.4 134.42-134.47c-7.7-7.7-16.42-14.39-18.91-11.89z" />
                            <path style="fill:#bfbebe"
                                d="M206.69 244.4 103.5 327.98l49.77 53.6 86.69-103.64c3.33-3.33-29.48-37.3-33.27-33.52z" />
                            <path style="fill:#aaa"
                                d="M234.78 217.37 101.45 329.6l26.04 26.05s127-125.6 126.2-126.38c-7.7-7.7-16.42-14.4-18.91-11.9z" />
                        </svg>