<?xml version="1.0" encoding="UTF-8" standalone="no"?>
<svg
   xmlns:dc="http://purl.org/dc/elements/1.1/"
   xmlns:cc="http://creativecommons.org/ns#"
   xmlns:rdf="http://www.w3.org/1999/02/22-rdf-syntax-ns#"
   xmlns:svg="http://www.w3.org/2000/svg"
   xmlns="http://www.w3.org/2000/svg"
   viewBox="0 0 66.666664 66.666664"
   height="66.666664"
   width="66.666664"
   xml:space="preserve"
   id="svg2"
   version="1.1"><metadata
     id="metadata8"><rdf:RDF><cc:Work
         rdf:about=""><dc:format>image/svg+xml</dc:format><dc:type
           rdf:resource="http://purl.org/dc/dcmitype/StillImage" /></cc:Work></rdf:RDF></metadata><defs
     id="defs6"><clipPath
       id="clipPath18"
       clipPathUnits="userSpaceOnUse"><path
         id="path16"
         d="M 0,50 H 50 V 0 H 0 Z" /></clipPath><clipPath
       id="clipPath66"
       clipPathUnits="userSpaceOnUse"><path
         id="path64"
         d="M 0,50 H 50 V 0 H 0 Z" /></clipPath></defs><g
     transform="matrix(1.3333333,0,0,-1.3333333,0,66.666667)"
     id="g10"><g
       id="g12"><g
         clip-path="url(#clipPath18)"
         id="g14"><g
           transform="translate(48.8936,24.8629)"
           id="g20"><path
             id="path22"
             style="fill:#e4e4fc;fill-opacity:1;fill-rule:nonzero;stroke:none"
             d="m 0,0 c 0,-13.22 -10.717,-23.936 -23.936,-23.936 -13.22,0 -23.936,10.716 -23.936,23.936 0,13.22 10.716,23.936 23.936,23.936 C -10.717,23.936 0,13.22 0,0" /></g><g
           transform="translate(25,36.6383)"
           id="g24"><path
             id="path26"
             style="fill:#ffc639;fill-opacity:1;fill-rule:nonzero;stroke:none"
             d="m 0,0 v 0 c -0.693,0 -1.255,0.562 -1.255,1.255 v 5.319 c 0,0.694 0.562,1.256 1.255,1.256 v 0 c 0.693,0 1.255,-0.562 1.255,-1.256 V 1.255 C 1.255,0.562 0.693,0 0,0" /></g><g
           transform="translate(25,36.6383)"
           id="g28"><path
             id="path30"
             style="fill:none;stroke:#a37100;stroke-width:0.25;stroke-linecap:butt;stroke-linejoin:miter;stroke-miterlimit:10;stroke-dasharray:none;stroke-opacity:1"
             d="m 0,0 v 0 c -0.693,0 -1.255,0.562 -1.255,1.255 v 5.319 c 0,0.694 0.562,1.256 1.255,1.256 v 0 c 0.693,0 1.255,-0.562 1.255,-1.256 V 1.255 C 1.255,0.562 0.693,0 0,0 Z" /></g><g
           transform="translate(30.2816,36.2007)"
           id="g32"><path
             id="path34"
             style="fill:#ffc639;fill-opacity:1;fill-rule:nonzero;stroke:none"
             d="m 0,0 v 0 c -0.635,0.278 -0.925,1.018 -0.647,1.653 l 2.133,4.873 c 0.278,0.635 1.018,0.925 1.653,0.647 v 0 C 3.774,6.895 4.064,6.155 3.786,5.52 L 1.653,0.647 C 1.375,0.012 0.635,-0.278 0,0" /></g><g
           transform="translate(30.2816,36.2007)"
           id="g36"><path
             id="path38"
             style="fill:none;stroke:#a37100;stroke-width:0.25;stroke-linecap:butt;stroke-linejoin:miter;stroke-miterlimit:10;stroke-dasharray:none;stroke-opacity:1"
             d="m 0,0 v 0 c -0.635,0.278 -0.925,1.018 -0.647,1.653 l 2.133,4.873 c 0.278,0.635 1.018,0.925 1.653,0.647 v 0 C 3.774,6.895 4.064,6.155 3.786,5.52 L 1.653,0.647 C 1.375,0.012 0.635,-0.278 0,0 Z" /></g><g
           transform="translate(19.4773,35.9757)"
           id="g40"><path
             id="path42"
             style="fill:#ffc639;fill-opacity:1;fill-rule:nonzero;stroke:none"
             d="m 0,0 v 0 c -0.637,-0.273 -1.375,0.022 -1.648,0.66 l -2.094,4.889 c -0.273,0.638 0.022,1.376 0.66,1.649 v 0 c 0.637,0.273 1.375,-0.023 1.648,-0.66 L 0.66,1.648 C 0.933,1.011 0.637,0.273 0,0" /></g><g
           transform="translate(19.4773,35.9757)"
           id="g44"><path
             id="path46"
             style="fill:none;stroke:#a37100;stroke-width:0.25;stroke-linecap:butt;stroke-linejoin:miter;stroke-miterlimit:10;stroke-dasharray:none;stroke-opacity:1"
             d="m 0,0 v 0 c -0.637,-0.273 -1.375,0.022 -1.648,0.66 l -2.094,4.889 c -0.273,0.638 0.022,1.376 0.66,1.649 v 0 c 0.637,0.273 1.375,-0.023 1.648,-0.66 L 0.66,1.648 C 0.933,1.011 0.637,0.273 0,0 Z" /></g></g></g><path
       id="path48"
       style="fill:#c7c4c0;fill-opacity:1;fill-rule:nonzero;stroke:#3d3d3d;stroke-width:0.25;stroke-linecap:butt;stroke-linejoin:miter;stroke-miterlimit:10;stroke-dasharray:none;stroke-opacity:1"
       d="M 45.739,24.133 H 4.261 v 4.194 h 41.478 z" /><path
       id="path50"
       style="fill:#9c938f;fill-opacity:1;fill-rule:nonzero;stroke:#3d3d3d;stroke-width:0.25;stroke-linecap:butt;stroke-linejoin:miter;stroke-miterlimit:10;stroke-dasharray:none;stroke-opacity:1"
       d="M 45.739,24.133 H 4.261 v 2.175 h 41.478 z" /><path
       id="path52"
       style="fill:#9c938f;fill-opacity:1;fill-rule:nonzero;stroke:#3d3d3d;stroke-width:0.25;stroke-linecap:butt;stroke-linejoin:miter;stroke-miterlimit:10;stroke-dasharray:none;stroke-opacity:1"
       d="m 34.709,18.385 h 3.728 v 15.379 h -3.728 z" /><path
       id="path54"
       style="fill:#c7c4c0;fill-opacity:1;fill-rule:nonzero;stroke:#3d3d3d;stroke-width:0.25;stroke-linecap:butt;stroke-linejoin:miter;stroke-miterlimit:10;stroke-dasharray:none;stroke-opacity:1"
       d="M 38.438,19.783 H 41.7 v 12.583 h -3.262 z" /><path
       id="path56"
       style="fill:#9c938f;fill-opacity:1;fill-rule:nonzero;stroke:#3d3d3d;stroke-width:0.25;stroke-linecap:butt;stroke-linejoin:miter;stroke-miterlimit:10;stroke-dasharray:none;stroke-opacity:1"
       d="m 15.291,18.385 h -3.728 v 15.379 h 3.728 z" /><path
       id="path58"
       style="fill:#c7c4c0;fill-opacity:1;fill-rule:nonzero;stroke:#3d3d3d;stroke-width:0.25;stroke-linecap:butt;stroke-linejoin:miter;stroke-miterlimit:10;stroke-dasharray:none;stroke-opacity:1"
       d="M 11.562,19.783 H 7.989 v 12.583 h 3.573 z" /><g
       id="g60"><g
         clip-path="url(#clipPath66)"
         id="g62"><g
           transform="translate(19.1207,31.4463)"
           id="g68"><path
             id="path70"
             style="fill:#f9cbac;fill-opacity:1;fill-rule:nonzero;stroke:none"
             d="m 0,0 c 0.277,-0.724 0.741,-1.522 1.423,-1.414 0.66,0.105 0.733,1.368 0.661,2.506 C 1.911,1.219 1.728,1.306 1.537,1.337 0.612,1.487 0.14,0.877 0,0" /></g><g
           transform="translate(23.0791,34.0904)"
           id="g72"><path
             id="path74"
             style="fill:#f9cbac;fill-opacity:1;fill-rule:nonzero;stroke:none"
             d="m 0,0 c -0.635,0.103 -1.044,-0.171 -1.274,-0.645 0.242,-1.188 0.732,-2.724 1.633,-2.543 0.755,0.151 0.67,1.457 0.416,2.673 C 0.529,-0.23 0.267,-0.043 0,0" /></g><g
           transform="translate(26.7885,33.4769)"
           id="g76"><path
             id="path78"
             style="fill:#f9cbac;fill-opacity:1;fill-rule:nonzero;stroke:none"
             d="M 0,0 C -0.238,0.337 -0.504,0.566 -0.786,0.632 -1.396,0.774 -1.817,0.544 -2.079,0.11 -1.921,-1.114 -1.542,-2.695 -0.645,-2.575 0.068,-2.48 0.125,-1.237 0,0" /></g><g
           transform="translate(28.5583,32.0614)"
           id="g80"><path
             id="path82"
             style="fill:#f9cbac;fill-opacity:1;fill-rule:nonzero;stroke:none"
             d="M 0,0 C 0.504,0 0.739,0.295 0.837,0.665 0.617,0.92 0.377,1.095 0.123,1.154 -0.371,1.269 -0.74,1.141 -1.002,0.858 -0.882,0.408 -0.606,0 0,0" /></g><g
           transform="translate(28.6809,33.2157)"
           id="g84"><path
             id="path86"
             style="fill:#eda97c;fill-opacity:1;fill-rule:nonzero;stroke:none"
             d="m 0,0 c -0.689,0.161 -1.138,-0.153 -1.389,-0.701 -0.338,0.845 -0.788,1.477 -1.289,1.594 -0.947,0.221 -1.44,-0.452 -1.589,-1.399 -0.384,0.757 -0.851,1.302 -1.335,1.381 -1.054,0.171 -1.491,-0.696 -1.505,-1.795 0,-0.035 0.001,-0.072 0.002,-0.109 -0.273,0.323 -0.584,0.542 -0.918,0.596 -1.11,0.181 -1.569,-0.731 -1.583,-1.888 -0.02,-1.614 0.826,-3.704 1.981,-3.962 1.048,-0.234 1.529,0.504 1.616,1.527 0.412,-0.815 0.886,-1.44 1.322,-1.538 0.821,-0.183 1.224,0.418 1.333,1.34 0.332,-0.715 0.717,-1.254 1.101,-1.367 0.838,-0.248 1.284,0.381 1.44,1.358 0.36,-0.693 0.8,-1.229 1.238,-1.358 C 3.008,-7.084 1.867,-0.436 0,0" /></g><g
           transform="translate(28.6809,33.2157)"
           id="g88"><path
             id="path90"
             style="fill:none;stroke:#572a00;stroke-width:0.25;stroke-linecap:butt;stroke-linejoin:miter;stroke-miterlimit:10;stroke-dasharray:none;stroke-opacity:1"
             d="m 0,0 c -0.689,0.161 -1.138,-0.153 -1.389,-0.701 -0.338,0.845 -0.788,1.477 -1.289,1.594 -0.947,0.221 -1.44,-0.452 -1.589,-1.399 -0.384,0.757 -0.851,1.302 -1.335,1.381 -1.054,0.171 -1.491,-0.696 -1.505,-1.795 0,-0.035 0.001,-0.072 0.002,-0.109 -0.273,0.323 -0.584,0.542 -0.918,0.596 -1.11,0.181 -1.569,-0.731 -1.583,-1.888 -0.02,-1.614 0.826,-3.704 1.981,-3.962 1.048,-0.234 1.529,0.504 1.616,1.527 0.412,-0.815 0.886,-1.44 1.322,-1.538 0.821,-0.183 1.224,0.418 1.333,1.34 0.332,-0.715 0.717,-1.254 1.101,-1.367 0.838,-0.248 1.284,0.381 1.44,1.358 0.36,-0.693 0.8,-1.229 1.238,-1.358 C 3.008,-7.084 1.867,-0.436 0,0 Z" /></g><g
           transform="translate(28.5396,28.936)"
           id="g92"><path
             id="path94"
             style="fill:#f9cbac;fill-opacity:1;fill-rule:nonzero;stroke:none"
             d="m 0,0 c 0,0 0.709,0.198 1.618,0.077 0,0 0.355,-1.363 -0.545,-1.536 C -0.009,-1.666 0,0 0,0" /></g><g
           transform="translate(20.3462,28.68)"
           id="g96"><path
             id="path98"
             style="fill:#f9cbac;fill-opacity:1;fill-rule:nonzero;stroke:none"
             d="m 0,0 c 0,0 0.676,0.29 1.594,0.29 0,0 0.531,-1.304 -0.338,-1.594 C 0.211,-1.653 0,0 0,0" /></g><g
           transform="translate(23.0997,28.68)"
           id="g100"><path
             id="path102"
             style="fill:#f9cbac;fill-opacity:1;fill-rule:nonzero;stroke:none"
             d="m 0,0 c 0,0 0.676,0.58 1.594,0.29 0,0 0.531,-1.304 -0.338,-1.594 C 0.211,-1.653 0,0 0,0" /></g><g
           transform="translate(25.7861,28.936)"
           id="g104"><path
             id="path106"
             style="fill:#f9cbac;fill-opacity:1;fill-rule:nonzero;stroke:none"
             d="m 0,0 c 0,0 0.708,0.198 1.618,0.077 0,0 0.355,-1.363 -0.545,-1.536 C -0.009,-1.666 0,0 0,0" /></g><g
           transform="translate(30.9208,5.7414)"
           id="g108"><path
             id="path110"
             style="fill:#eda97c;fill-opacity:1;fill-rule:nonzero;stroke:#572a00;stroke-width:0.25;stroke-linecap:butt;stroke-linejoin:miter;stroke-miterlimit:10;stroke-dasharray:none;stroke-opacity:1"
             d="M 0,0 -1.638,14.227 -8.594,14.074 -9.999,0" /></g><g
           transform="translate(19.8148,24.3811)"
           id="g112"><path
             id="path114"
             style="fill:#f9cbac;fill-opacity:1;fill-rule:nonzero;stroke:none"
             d="m 0,0 c 0,0 -1.063,-5.555 5.7,-5.797 2.161,-0.077 4.499,0.447 5.764,2.375 0.989,1.508 1.743,6.087 0.902,7.77 C 11.932,5.217 8.888,7.826 7.729,6.811 6.57,5.797 10.048,3.478 10.048,3.478 L 9.178,0.145 C 9.178,0.145 4.758,1.159 0,0" /></g><g
           transform="translate(19.8148,24.3811)"
           id="g116"><path
             id="path118"
             style="fill:none;stroke:#572a00;stroke-width:0.25;stroke-linecap:butt;stroke-linejoin:miter;stroke-miterlimit:10;stroke-dasharray:none;stroke-opacity:1"
             d="m 0,0 c 0,0 -1.063,-5.555 5.7,-5.797 2.161,-0.077 4.499,0.447 5.764,2.375 0.989,1.508 1.743,6.087 0.902,7.77 C 11.932,5.217 8.888,7.826 7.729,6.811 6.57,5.797 10.048,3.478 10.048,3.478 L 9.178,0.145 C 9.178,0.145 4.758,1.159 0,0 Z" /></g><g
           transform="translate(28.5269,31.233)"
           id="g120"><path
             id="path122"
             style="fill:#f9e7dc;fill-opacity:1;fill-rule:nonzero;stroke:none"
             d="m 0,0 c 0,0 -0.483,-0.097 -0.531,-0.58 0,0 0.724,-0.676 1.256,-0.772 l 0.772,0.676 C 1.497,-0.676 0.531,0 0,0" /></g><g
           transform="translate(24.7903,23.0555)"
           id="g124"><path
             id="path126"
             style="fill:#eda97c;fill-opacity:1;fill-rule:nonzero;stroke:none"
             d="m 0,0 c 0,0 1.522,1.594 4.203,1.449 0,0 -4.42,1.015 -9.179,-0.145 0,0 3.02,0.218 4.976,-1.304" /></g><g
           transform="translate(28.9929,24.5046)"
           id="g128"><path
             id="path130"
             style="fill:none;stroke:#572a00;stroke-width:0.25;stroke-linecap:butt;stroke-linejoin:miter;stroke-miterlimit:10;stroke-dasharray:none;stroke-opacity:1"
             d="M 0,0 C 0,0 -4.42,1.014 -9.178,-0.145" /></g><g
           transform="translate(29.6165,5.7414)"
           id="g132"><path
             id="path134"
             style="fill:#f9cbac;fill-opacity:1;fill-rule:nonzero;stroke:none"
             d="M 0,0 C 0,0 -0.527,10.685 -3.425,10.782 -6.324,10.878 -7.101,0 -7.101,0" /></g></g></g></g>
             </svg>