<?xml version="1.0" encoding="UTF-8"?>
<svg xmlns="http://www.w3.org/2000/svg" xmlns:xlink="http://www.w3.org/1999/xlink" width="62.81pt" height="60.77pt" viewBox="0 0 62.81 60.77" version="1.1">
<defs>
<clipPath id="clip1">
  <path d="M 29 8 L 62.808594 8 L 62.808594 60.769531 L 29 60.769531 Z M 29 8 "/>
</clipPath>
<clipPath id="clip2">
  <path d="M 36 30 L 55 30 L 55 60.769531 L 36 60.769531 Z M 36 30 "/>
</clipPath>
</defs>
<g id="surface1">
<path style=" stroke:none;fill-rule:nonzero;fill:rgb(57.299805%,72.499084%,80.799866%);fill-opacity:1;" d="M 51.996094 25.105469 C 51.996094 38.972656 40.753906 50.214844 26.886719 50.214844 C 13.015625 50.214844 1.773438 38.972656 1.773438 25.105469 C 1.773438 11.238281 13.015625 -0.00390625 26.886719 -0.00390625 C 40.753906 -0.00390625 51.996094 11.238281 51.996094 25.105469 "/>
<path style=" stroke:none;fill-rule:nonzero;fill:rgb(25.498962%,40.79895%,54.098511%);fill-opacity:1;" d="M 0 24.691406 L 5.578125 24.691406 C 5.578125 24.691406 8.667969 20.859375 9.945313 20.859375 L 25.933594 20.859375 L 25.933594 23.011719 L 14.3125 23.011719 L 14.3125 24.957031 L 25.933594 24.957031 L 25.933594 27.308594 L 14.378906 27.308594 L 14.378906 29.460938 L 25.933594 29.460938 L 25.933594 31.542969 L 14.3125 31.542969 L 14.3125 33.289063 L 25.933594 33.289063 L 25.933594 35.640625 L 9.742188 35.640625 C 8.667969 35.640625 5.644531 31.34375 5.644531 31.34375 L 0 31.34375 "/>
<path style=" stroke:none;fill-rule:nonzero;fill:rgb(25.498962%,40.79895%,54.098511%);fill-opacity:1;" d="M 49.652344 9.238281 L 11.488281 9.238281 C 11.488281 9.238281 17.132813 16.15625 37.761719 16.15625 L 38.765625 13.402344 L 49.652344 13.402344 "/>
<path style="fill:none;stroke-width:15;stroke-linecap:round;stroke-linejoin:round;stroke:rgb(87.098694%,92.89856%,99.198914%);stroke-opacity:1;stroke-miterlimit:10;" d="M 352.734375 539.535938 C 352.734375 539.535938 272.460938 579.848438 192.148438 539.535938 " transform="matrix(0.1,0,0,-0.1,0,60.77)"/>
<path style="fill:none;stroke-width:15;stroke-linecap:round;stroke-linejoin:round;stroke:rgb(87.098694%,92.89856%,99.198914%);stroke-opacity:1;stroke-miterlimit:10;" d="M 114.882813 484.41875 C 114.882813 484.41875 84.648438 460.239063 79.960938 412.54375 " transform="matrix(0.1,0,0,-0.1,0,60.77)"/>
<path style="fill:none;stroke-width:15;stroke-linecap:round;stroke-linejoin:round;stroke:rgb(87.098694%,92.89856%,99.198914%);stroke-opacity:1;stroke-miterlimit:10;" d="M 118.242188 230.473438 C 118.242188 230.473438 165.273438 161.91875 246.5625 155.864063 " transform="matrix(0.1,0,0,-0.1,0,60.77)"/>
<g clip-path="url(#clip1)" clip-rule="nonzero">
<path style=" stroke:none;fill-rule:nonzero;fill:rgb(100%,32.499695%,40.39917%);fill-opacity:1;" d="M 44.746094 60.769531 C 44.746094 60.769531 28.265625 60.65625 29.070313 41.453125 C 29.875 22.25 53.347656 8.363281 53.347656 8.363281 C 53.347656 8.363281 43.851563 19.113281 52.363281 32.101563 C 52.363281 32.101563 54.421875 24.128906 60.871094 21.890625 C 60.871094 21.890625 57.332031 26.429688 60.335938 32.910156 C 63.738281 40.253906 67.144531 60.769531 44.746094 60.769531 "/>
</g>
<g clip-path="url(#clip2)" clip-rule="nonzero">
<path style=" stroke:none;fill-rule:nonzero;fill:rgb(100%,65.899658%,32.199097%);fill-opacity:1;" d="M 44.300781 30.242188 C 44.300781 30.242188 45.003906 37.015625 48.957031 43.390625 C 52.722656 49.464844 59.734375 60.769531 45.925781 60.769531 C 32.117188 60.769531 34.265625 44.0625 44.300781 30.242188 "/>
</g>
</g>
</svg>
