<svg width="20" height="20" viewBox="0 0 20 20" fill="none" xmlns="http://www.w3.org/2000/svg">
<rect width="20" height="20" rx="5" fill="#25E245"/>
<g clip-path="url(#clip0_102_14)">
<path d="M8.67185 6.2125C8.48963 4.11523 6.30298 3.08617 6.21044 3.04417C6.12393 3.00348 6.02698 2.99048 5.93282 3.00694C3.40844 3.42601 3.02873 4.8961 3.01347 4.9572C2.9927 5.04233 2.996 5.13157 3.02301 5.21494C6.03394 14.5624 12.2915 16.295 14.3484 16.8649C14.5067 16.9089 14.6374 16.9442 14.7367 16.9766C14.8499 17.0136 14.9729 17.0065 15.0811 16.9566C15.144 16.9279 16.6304 16.2273 16.9939 13.9419C17.01 13.8422 16.994 13.7399 16.9481 13.6498C16.9157 13.5868 16.1381 12.1062 13.982 11.5831C13.9089 11.5644 13.8323 11.5637 13.7588 11.5812C13.6854 11.5987 13.6172 11.6337 13.5603 11.6833C12.8801 12.2647 11.9404 12.8842 11.5349 12.9482C8.81687 11.6184 7.29899 9.06677 7.24175 8.58279C7.20836 8.31072 7.83135 7.35517 8.54783 6.57812C8.59286 6.52921 8.62716 6.47142 8.64852 6.40845C8.66988 6.34548 8.67783 6.27873 8.67185 6.2125V6.2125Z" fill="white"/>
</g>
<defs>
<clipPath id="clip0_102_14">
<rect width="14" height="14" fill="white" transform="translate(3 3)"/>
</clipPath>
</defs>
</svg>
