<svg xmlns="http://www.w3.org/2000/svg" xmlns:xlink="http://www.w3.org/1999/xlink" width="2500" height="2500" viewBox="0 0 1024 1024"><defs><path id="b" d="M1023.94 765.15c0 5.6-.17 17.77-.5 27.16-.83 22.98-2.65 52.64-5.4 66.15-4.15 20.3-10.4 39.47-18.55 55.43a198.63 198.63 0 0 1-36.56 50.36 198.68 198.68 0 0 1-50.31 36.42c-16.04 8.17-35.33 14.42-55.75 18.55-13.38 2.7-42.81 4.48-65.65 5.3-9.4.33-21.56.5-27.15.5l-504.22-.08c-5.6 0-17.77-.17-27.16-.5-22.98-.83-52.64-2.65-66.15-5.4-20.3-4.15-39.48-10.4-55.43-18.55a198.64 198.64 0 0 1-50.36-36.56 198.65 198.65 0 0 1-36.42-50.31c-8.17-16.04-14.42-35.33-18.55-55.75-2.7-13.38-4.48-42.81-5.3-65.65-.33-9.4-.5-21.56-.5-27.14l.08-504.23c0-5.61.17-17.77.5-27.16.83-22.98 2.65-52.64 5.4-66.15 4.15-20.3 10.4-39.48 18.55-55.43a198.65 198.65 0 0 1 36.56-50.36 198.7 198.7 0 0 1 50.32-36.42c16.03-8.17 35.32-14.42 55.74-18.55 13.38-2.7 42.81-4.49 65.65-5.3 9.4-.33 21.56-.5 27.15-.5l504.22.08c5.61 0 17.77.17 27.16.5 22.99.83 52.64 2.65 66.16 5.4 20.3 4.15 39.47 10.4 55.42 18.55a198.64 198.64 0 0 1 50.36 36.56 198.66 198.66 0 0 1 36.42 50.31c8.17 16.04 14.43 35.33 18.55 55.75 2.7 13.38 4.48 42.81 5.3 65.65.33 9.4.5 21.56.5 27.15l-.08 504.22z"/></defs><linearGradient id="a" x1="512" x2="512" y1=".98" y2="1025.02" gradientUnits="userSpaceOnUse"><stop offset="0" stop-color="#61fd7d"/><stop offset="1" stop-color="#2bb826"/></linearGradient><use fill="url(#a)" overflow="visible" xlink:href="#b"/><path fill="#FFF" d="M783.3 243.25c-69.33-69.4-161.53-107.62-259.76-107.66-202.4 0-367.13 164.67-367.21 367.07a366.36 366.36 0 0 0 49.01 183.52l-52.1 190.23 194.67-51.05a367.06 367.06 0 0 0 175.48 44.69h.15c202.39 0 367.13-164.7 367.21-367.1.04-98.08-38.12-190.32-107.45-259.7zm-259.76 564.8h-.12a304.81 304.81 0 0 1-155.34-42.53l-11.15-6.61L241.4 789.2l30.84-112.6-7.26-11.54a304.32 304.32 0 0 1-46.67-162.38c.07-168.22 136.99-305.1 305.34-305.1 81.52.04 158.16 31.82 215.78 89.49s89.34 134.33 89.31 215.86c-.06 168.24-136.98 305.12-305.2 305.12zm167.42-228.52c-9.18-4.59-54.29-26.78-62.7-29.84-8.4-3.06-14.52-4.6-20.64 4.6-6.12 9.17-23.7 29.83-29.06 35.96-5.35 6.12-10.7 6.88-19.87 2.3-9.18-4.6-38.75-14.29-73.8-45.53-27.27-24.32-45.68-54.36-51.03-63.55-5.36-9.18-.57-14.14 4.02-18.72 4.13-4.1 9.17-10.71 13.76-16.07 4.59-5.35 6.12-9.18 9.18-15.3 3.06-6.12 1.53-11.48-.77-16.07-2.29-4.6-20.64-49.74-28.29-68.1-7.44-17.9-15.01-15.47-20.64-15.75-5.35-.27-11.47-.32-17.59-.32s-16.05 2.3-24.46 11.47-32.12 31.38-32.12 76.53c0 45.14 32.88 88.76 37.47 94.88 4.59 6.12 64.7 98.77 156.74 138.5a527.91 527.91 0 0 0 52.3 19.32c21.99 6.98 41.99 6 57.8 3.64 17.63-2.63 54.28-22.2 61.93-43.62 7.65-21.42 7.65-39.79 5.35-43.61-2.29-3.83-8.4-6.13-17.58-10.72z"/></svg>